<?xml version="1.0" standalone="no"?>
<!DOCTYPE svg PUBLIC "-//W3C//DTD SVG 20010904//EN"
 "http://www.w3.org/TR/2001/REC-SVG-20010904/DTD/svg10.dtd">
<svg version="1.0" xmlns="http://www.w3.org/2000/svg"
 width="365.000000pt" height="365.000000pt" viewBox="0 0 365.000000 365.000000"
 preserveAspectRatio="xMidYMid meet">
<metadata>
Created by potrace 1.11, written by Peter Selinger 2001-2013
</metadata>
<g transform="translate(0.000000,365.000000) scale(0.100000,-0.100000)"
fill="#000000" stroke="none">
<path d="M1585 3540 c-433 -37 -853 -180 -1194 -407 -127 -85 -176 -123 -314
-247 l-77 -69 0 -601 0 -601 130 -69 c84 -45 125 -73 117 -78 -6 -4 -44 -8
-83 -8 -39 0 -92 -3 -118 -6 -41 -6 -46 -10 -46 -31 0 -24 2 -25 58 -19 31 3
112 8 179 12 l122 6 429 -233 c237 -129 429 -235 428 -236 -1 -1 -273 72 -604
162 -332 91 -605 165 -608 165 -2 0 -4 -11 -4 -25 0 -20 7 -26 43 -36 23 -6
345 -94 714 -195 l673 -184 167 -91 c93 -50 171 -94 175 -97 3 -4 -176 -105
-398 -226 -222 -120 -407 -223 -411 -229 -4 -7 14 -8 53 -5 53 5 95 26 437
212 208 113 383 206 389 206 6 0 182 -93 392 -207 358 -195 385 -207 441 -210
51 -3 57 -2 44 9 -9 7 -195 110 -413 228 -218 118 -396 217 -396 220 0 3 80
47 177 99 l176 94 691 188 c380 104 692 189 693 189 2 0 3 11 3 25 0 14 -3 25
-7 25 -5 0 -269 -72 -588 -159 -319 -88 -581 -158 -582 -157 -2 2 189 107 424
235 l428 232 95 -6 c52 -3 125 -8 163 -11 66 -5 67 -5 67 20 0 23 -4 25 -62
30 -35 4 -90 7 -123 9 l-60 2 122 65 123 65 0 616 0 616 -67 60 c-416 366
-906 582 -1457 643 -142 15 -413 20 -541 10z m1341 -1661 c197 -221 360 -404
361 -408 2 -3 -284 -161 -634 -351 -350 -190 -676 -366 -723 -392 l-87 -47
-719 390 c-395 215 -723 394 -727 398 -11 11 672 793 687 788 9 -4 643 -479
732 -549 8 -6 132 88 370 281 198 159 364 289 370 290 6 1 172 -180 370 -400z"/>
</g>
</svg>
